<svg width="395" height="455" viewBox="0 0 395 455" fill="none" xmlns="http://www.w3.org/2000/svg">
<g opacity="0.5">
<path d="M1 194.124L26.0395 182.92L50.2156 194.124L75.6868 182.92L96.4091 194.124L122.744 182.92L144.761 194.124L166.779 182.92L186.638 194.124L210.382 182.024" stroke="#6765F0" stroke-width="0.3"/>
<path d="M186.205 194.124L210.381 182.024L235.42 194.124L260.892 182.92L281.614 194.124L307.949 182.92L329.966 194.124L351.984 182.92L371.842 194.124L394.723 182.92" stroke="#6765F0" stroke-width="0.3"/>
<path d="M1 230.329L26.0395 219.125L50.2156 230.329L75.6868 219.125L96.4091 230.329L122.744 219.125L144.761 230.329L166.779 219.125L186.638 230.329L210.382 218.229" stroke="#6765F0" stroke-width="0.3"/>
<path d="M186.205 230.329L210.381 218.229L235.42 230.329L260.892 219.125L281.614 230.329L307.949 219.125L329.966 230.329L351.984 219.125L371.842 230.329L394.723 219.125" stroke="#6765F0" stroke-width="0.3"/>
<path d="M1 186.883L26.0395 175.679L50.2156 186.883L75.6868 175.679L96.4091 186.883L122.744 175.679L144.761 186.883L166.779 175.679L186.638 186.883L210.382 174.783" stroke="#6765F0" stroke-width="0.3"/>
<path d="M186.205 186.883L210.381 174.783L235.42 186.883L260.892 175.679L281.614 186.883L307.949 175.679L329.966 186.883L351.984 175.679L371.842 186.883L394.723 175.679" stroke="#6765F0" stroke-width="0.3"/>
<path d="M1 223.088L26.0395 211.884L50.2156 223.088L75.6868 211.884L96.4091 223.088L122.744 211.884L144.761 223.088L166.779 211.884L186.638 223.088L210.382 210.988" stroke="#6765F0" stroke-width="0.3"/>
<path d="M186.205 223.088L210.381 210.988L235.42 223.088L260.892 211.884L281.614 223.088L307.949 211.884L329.966 223.088L351.984 211.884L371.842 223.088L394.723 211.884" stroke="#6765F0" stroke-width="0.3"/>
<path d="M1 179.642L26.0395 168.438L50.2156 179.642L75.6868 168.438L96.4091 179.642L122.744 168.438L144.761 179.642L166.779 168.438L186.638 179.642L210.382 167.542" stroke="#6765F0" stroke-width="0.3"/>
<path d="M186.205 179.642L210.381 167.542L235.42 179.642L260.892 168.438L281.614 179.642L307.949 168.438L329.966 179.642L351.984 168.438L371.842 179.642L394.723 168.438" stroke="#6765F0" stroke-width="0.3"/>
<path d="M1 215.847L26.0395 204.643L50.2156 215.847L75.6868 204.643L96.4091 215.847L122.744 204.643L144.761 215.847L166.779 204.643L186.638 215.847L210.382 203.747" stroke="#6765F0" stroke-width="0.3"/>
<path d="M186.205 215.847L210.381 203.747L235.42 215.847L260.892 204.643L281.614 215.847L307.949 204.643L329.966 215.847L351.984 204.643L371.842 215.847L394.723 204.643" stroke="#6765F0" stroke-width="0.3"/>
<path d="M1 172.401L26.0395 161.197L50.2156 172.401L75.6868 161.197L96.4091 172.401L122.744 161.197L144.761 172.401L166.779 161.197L186.638 172.401L210.382 160.301" stroke="#6765F0" stroke-width="0.3"/>
<path d="M186.205 172.401L210.381 160.301L235.42 172.401L260.892 161.197L281.614 172.401L307.949 161.197L329.966 172.401L351.984 161.197L371.842 172.401L394.723 161.197" stroke="#6765F0" stroke-width="0.3"/>
<path d="M1 208.606L26.0395 197.402L50.2156 208.606L75.6868 197.402L96.4091 208.606L122.744 197.402L144.761 208.606L166.779 197.402L186.638 208.606L210.382 196.506" stroke="#6765F0" stroke-width="0.3"/>
<path d="M186.205 208.606L210.381 196.506L235.42 208.606L260.892 197.402L281.614 208.606L307.949 197.402L329.966 208.606L351.984 197.402L371.842 208.606L394.723 197.402" stroke="#6765F0" stroke-width="0.3"/>
<path d="M1 165.16L26.0395 153.956L50.2156 165.16L75.6868 153.956L96.4091 165.16L122.744 153.956L144.761 165.16L166.779 153.956L186.638 165.16L210.382 153.06" stroke="#6765F0" stroke-width="0.3"/>
<path d="M186.205 165.16L210.381 153.06L235.42 165.16L260.892 153.956L281.614 165.16L307.949 153.956L329.966 165.16L351.984 153.956L371.842 165.16L394.723 153.956" stroke="#6765F0" stroke-width="0.3"/>
<path d="M1 201.365L26.0395 190.161L50.2156 201.365L75.6868 190.161L96.4091 201.365L122.744 190.161L144.761 201.365L166.779 190.161L186.638 201.365L210.382 189.265" stroke="#6765F0" stroke-width="0.3"/>
<path d="M186.205 201.365L210.381 189.265L235.42 201.365L260.892 190.161L281.614 201.365L307.949 190.161L329.966 201.365L351.984 190.161L371.842 201.365L394.723 190.161" stroke="#6765F0" stroke-width="0.3"/>
<path d="M1 157.919L26.0395 146.715L50.2156 157.919L75.6868 146.715L96.4091 157.919L122.744 146.715L144.761 157.919L166.779 146.715L186.638 157.919L210.382 145.819" stroke="#6765F0" stroke-width="0.3"/>
<path d="M186.205 157.919L210.381 145.819L235.42 157.919L260.892 146.715L281.614 157.919L307.949 146.715L329.966 157.919L351.984 146.715L371.842 157.919L394.723 146.715" stroke="#6765F0" stroke-width="0.3"/>
<path d="M1 150.678L26.0395 139.474L50.2156 150.678L75.6868 139.474L96.4091 150.678L122.744 139.474L144.761 150.678L166.779 139.474L186.638 150.678L210.382 138.578" stroke="#6765F0" stroke-width="0.3"/>
<path d="M186.205 150.678L210.381 138.578L235.42 150.678L260.892 139.474L281.614 150.678L307.949 139.474L329.966 150.678L351.984 139.474L371.842 150.678L394.723 139.474" stroke="#6765F0" stroke-width="0.3"/>
<path d="M1 143.437L26.0395 132.233L50.2156 143.437L75.6868 132.233L96.4091 143.437L122.744 132.233L144.761 143.437L166.779 132.233L186.638 143.437L210.382 131.337" stroke="#6765F0" stroke-width="0.3"/>
<path d="M186.205 143.437L210.381 131.337L235.42 143.437L260.892 132.233L281.614 143.437L307.949 132.233L329.966 143.437L351.984 132.233L371.842 143.437L394.723 132.233" stroke="#6765F0" stroke-width="0.3"/>
<path d="M1 136.196L26.0395 124.992L50.2156 136.196L75.6868 124.992L96.4091 136.196L122.744 124.992L144.761 136.196L166.779 124.992L186.638 136.196L210.382 124.096" stroke="#6765F0" stroke-width="0.3"/>
<path d="M186.205 136.196L210.381 124.096L235.42 136.196L260.892 124.992L281.614 136.196L307.949 124.992L329.966 136.196L351.984 124.992L371.842 136.196L394.723 124.992" stroke="#6765F0" stroke-width="0.3"/>
<path d="M1 128.955L26.0395 117.752L50.2156 128.955L75.6868 117.752L96.4091 128.955L122.744 117.752L144.761 128.955L166.779 117.752L186.638 128.955L210.382 116.855" stroke="#6765F0" stroke-width="0.3"/>
<path d="M186.205 128.955L210.381 116.855L235.42 128.955L260.892 117.752L281.614 128.955L307.949 117.752L329.966 128.955L351.984 117.752L371.842 128.955L394.723 117.752" stroke="#6765F0" stroke-width="0.3"/>
<path d="M1 121.714L26.0395 110.511L50.2156 121.714L75.6868 110.511L96.4091 121.714L122.744 110.511L144.761 121.714L166.779 110.511L186.638 121.714L210.382 109.614" stroke="#6765F0" stroke-width="0.3"/>
<path d="M186.205 121.714L210.381 109.614L235.42 121.714L260.892 110.511L281.614 121.714L307.949 110.511L329.966 121.714L351.984 110.511L371.842 121.714L394.723 110.511" stroke="#6765F0" stroke-width="0.3"/>
<path d="M1 114.473L26.0395 103.27L50.2156 114.473L75.6868 103.27L96.4091 114.473L122.744 103.27L144.761 114.473L166.779 103.27L186.638 114.473L210.382 102.374" stroke="#6765F0" stroke-width="0.3"/>
<path d="M186.205 114.473L210.381 102.374L235.42 114.473L260.892 103.27L281.614 114.473L307.949 103.27L329.966 114.473L351.984 103.27L371.842 114.473L394.723 103.27" stroke="#6765F0" stroke-width="0.3"/>
<path d="M1 107.232L26.0395 96.0288L50.2156 107.232L75.6868 96.0288L96.4091 107.232L122.744 96.0288L144.761 107.232L166.779 96.0288L186.638 107.232L210.382 95.1326" stroke="#6765F0" stroke-width="0.3"/>
<path d="M186.205 107.232L210.381 95.1326L235.42 107.232L260.892 96.0288L281.614 107.232L307.949 96.0288L329.966 107.232L351.984 96.0288L371.842 107.232L394.723 96.0288" stroke="#6765F0" stroke-width="0.3"/>
<path d="M1 99.9914L26.0395 88.7879L50.2156 99.9914L75.6868 88.7879L96.4091 99.9914L122.744 88.7879L144.761 99.9914L166.779 88.7879L186.638 99.9914L210.382 87.8916" stroke="#6765F0" stroke-width="0.3"/>
<path d="M186.205 99.9914L210.381 87.8916L235.42 99.9914L260.892 88.7879L281.614 99.9914L307.949 88.7879L329.966 99.9914L351.984 88.7879L371.842 99.9914L394.723 88.7879" stroke="#6765F0" stroke-width="0.3"/>
<path d="M1 92.7504L26.0395 81.5469L50.2156 92.7504L75.6868 81.5469L96.4091 92.7504L122.744 81.5469L144.761 92.7504L166.779 81.5469L186.638 92.7504L210.382 80.6506" stroke="#6765F0" stroke-width="0.3"/>
<path d="M186.205 92.7504L210.381 80.6506L235.42 92.7504L260.892 81.5469L281.614 92.7504L307.949 81.5469L329.966 92.7504L351.984 81.5469L371.842 92.7504L394.723 81.5469" stroke="#6765F0" stroke-width="0.3"/>
<path d="M1 85.5094L26.0395 74.3059L50.2156 85.5094L75.6868 74.3059L96.4091 85.5094L122.744 74.3059L144.761 85.5094L166.779 74.3059L186.638 85.5094L210.382 73.4097" stroke="#6765F0" stroke-width="0.3"/>
<path d="M186.205 85.5094L210.381 73.4097L235.42 85.5094L260.892 74.3059L281.614 85.5094L307.949 74.3059L329.966 85.5094L351.984 74.3059L371.842 85.5094L394.723 74.3059" stroke="#6765F0" stroke-width="0.3"/>
<path d="M1 78.2685L26.0395 67.065L50.2156 78.2685L75.6868 67.065L96.4091 78.2685L122.744 67.065L144.761 78.2685L166.779 67.065L186.638 78.2685L210.382 66.1687" stroke="#6765F0" stroke-width="0.3"/>
<path d="M186.205 78.2685L210.381 66.1687L235.42 78.2685L260.892 67.065L281.614 78.2685L307.949 67.065L329.966 78.2685L351.984 67.065L371.842 78.2685L394.723 67.065" stroke="#6765F0" stroke-width="0.3"/>
<path d="M1 71.0275L26.0395 59.824L50.2156 71.0275L75.6868 59.824L96.4091 71.0275L122.744 59.824L144.761 71.0275L166.779 59.824L186.638 71.0275L210.382 58.9277" stroke="#6765F0" stroke-width="0.3"/>
<path d="M186.205 71.0275L210.381 58.9277L235.42 71.0275L260.892 59.824L281.614 71.0275L307.949 59.824L329.966 71.0275L351.984 59.824L371.842 71.0275L394.723 59.824" stroke="#6765F0" stroke-width="0.3"/>
<path d="M1 63.7865L26.0395 52.583L50.2156 63.7865L75.6868 52.583L96.4091 63.7865L122.744 52.583L144.761 63.7865L166.779 52.583L186.638 63.7865L210.382 51.6868" stroke="#6765F0" stroke-width="0.3"/>
<path d="M186.205 63.7865L210.381 51.6868L235.42 63.7865L260.892 52.583L281.614 63.7865L307.949 52.583L329.966 63.7865L351.984 52.583L371.842 63.7865L394.723 52.583" stroke="#6765F0" stroke-width="0.3"/>
<path d="M1 56.5456L26.0395 45.3421L50.2156 56.5456L75.6868 45.3421L96.4091 56.5456L122.744 45.3421L144.761 56.5456L166.779 45.3421L186.638 56.5456L210.382 44.4458" stroke="#6765F0" stroke-width="0.3"/>
<path d="M186.205 56.5456L210.381 44.4458L235.42 56.5456L260.892 45.3421L281.614 56.5456L307.949 45.3421L329.966 56.5456L351.984 45.3421L371.842 56.5456L394.723 45.3421" stroke="#6765F0" stroke-width="0.3"/>
<path d="M1 49.3046L26.0395 38.1011L50.2156 49.3046L75.6868 38.1011L96.4091 49.3046L122.744 38.1011L144.761 49.3046L166.779 38.1011L186.638 49.3046L210.382 37.2048" stroke="#6765F0" stroke-width="0.3"/>
<path d="M186.205 49.3046L210.381 37.2048L235.42 49.3046L260.892 38.1011L281.614 49.3046L307.949 38.1011L329.966 49.3046L351.984 38.1011L371.842 49.3046L394.723 38.1011" stroke="#6765F0" stroke-width="0.3"/>
<path d="M1 42.0636L26.0395 30.8601L50.2156 42.0636L75.6868 30.8601L96.4091 42.0636L122.744 30.8601L144.761 42.0636L166.779 30.8601L186.638 42.0636L210.382 29.9639" stroke="#6765F0" stroke-width="0.3"/>
<path d="M186.205 42.0636L210.381 29.9639L235.42 42.0636L260.892 30.8601L281.614 42.0636L307.949 30.8601L329.966 42.0636L351.984 30.8601L371.842 42.0636L394.723 30.8601" stroke="#6765F0" stroke-width="0.3"/>
<path d="M1 34.8227L26.0395 23.6192L50.2156 34.8227L75.6868 23.6192L96.4091 34.8227L122.744 23.6192L144.761 34.8227L166.779 23.6192L186.638 34.8227L210.382 22.7229" stroke="#6765F0" stroke-width="0.3"/>
<path d="M186.205 34.8227L210.381 22.7229L235.42 34.8227L260.892 23.6192L281.614 34.8227L307.949 23.6192L329.966 34.8227L351.984 23.6192L371.842 34.8227L394.723 23.6192" stroke="#6765F0" stroke-width="0.3"/>
<path d="M1 27.5817L26.0395 16.3782L50.2156 27.5817L75.6868 16.3782L96.4091 27.5817L122.744 16.3782L144.761 27.5817L166.779 16.3782L186.638 27.5817L210.382 15.4819" stroke="#6765F0" stroke-width="0.3"/>
<path d="M186.205 27.5817L210.381 15.4819L235.42 27.5817L260.892 16.3782L281.614 27.5817L307.949 16.3782L329.966 27.5817L351.984 16.3782L371.842 27.5817L394.723 16.3782" stroke="#6765F0" stroke-width="0.3"/>
<path d="M1 20.3407L26.0395 9.13724L50.2156 20.3407L75.6868 9.13724L96.4091 20.3407L122.744 9.13724L144.761 20.3407L166.779 9.13724L186.638 20.3407L210.382 8.24097" stroke="#6765F0" stroke-width="0.3"/>
<path d="M186.205 20.3407L210.381 8.24097L235.42 20.3407L260.892 9.13724L281.614 20.3407L307.949 9.13724L329.966 20.3407L351.984 9.13724L371.842 20.3407L394.723 9.13724" stroke="#6765F0" stroke-width="0.3"/>
<path d="M1.00049 13.0998L26.04 1.89628L50.216 13.0998L75.6872 1.89628L96.4096 13.0998L122.744 1.89628L144.762 13.0998L166.779 1.89628L186.638 13.0998L210.382 1" stroke="#6765F0" stroke-width="0.3"/>
<path d="M186.205 13.0998L210.381 1L235.421 13.0998L260.892 1.89628L281.614 13.0998L307.949 1.89628L329.967 13.0998L351.984 1.89628L371.843 13.0998L394.724 1.89628" stroke="#6765F0" stroke-width="0.3"/>
<path d="M1 418.601L26.0395 407.398L50.2156 418.601L75.6868 407.398L96.4091 418.601L122.744 407.398L144.761 418.601L166.779 407.398L186.638 418.601L210.382 406.501" stroke="#6765F0" stroke-width="0.3"/>
<path d="M186.205 418.601L210.381 406.501L235.42 418.601L260.892 407.398L281.614 418.601L307.949 407.398L329.966 418.601L351.984 407.398L371.842 418.601L394.723 407.398" stroke="#6765F0" stroke-width="0.3"/>
<path d="M1 454.806L26.0395 443.603L50.2156 454.806L75.6868 443.603L96.4091 454.806L122.744 443.603L144.761 454.806L166.779 443.603L186.638 454.806L210.382 442.706" stroke="#6765F0" stroke-width="0.3"/>
<path d="M186.205 454.806L210.381 442.706L235.42 454.806L260.892 443.603L281.614 454.806L307.949 443.603L329.966 454.806L351.984 443.603L371.842 454.806L394.723 443.603" stroke="#6765F0" stroke-width="0.3"/>
<path d="M1 411.36L26.0395 400.157L50.2156 411.36L75.6868 400.157L96.4091 411.36L122.744 400.157L144.761 411.36L166.779 400.157L186.638 411.36L210.382 399.26" stroke="#6765F0" stroke-width="0.3"/>
<path d="M186.205 411.36L210.381 399.26L235.42 411.36L260.892 400.157L281.614 411.36L307.949 400.157L329.966 411.36L351.984 400.157L371.842 411.36L394.723 400.157" stroke="#6765F0" stroke-width="0.3"/>
<path d="M1 447.565L26.0395 436.362L50.2156 447.565L75.6868 436.362L96.4091 447.565L122.744 436.362L144.761 447.565L166.779 436.362L186.638 447.565L210.382 435.465" stroke="#6765F0" stroke-width="0.3"/>
<path d="M186.205 447.565L210.381 435.465L235.42 447.565L260.892 436.362L281.614 447.565L307.949 436.362L329.966 447.565L351.984 436.362L371.842 447.565L394.723 436.362" stroke="#6765F0" stroke-width="0.3"/>
<path d="M1 404.119L26.0395 392.916L50.2156 404.119L75.6868 392.916L96.4091 404.119L122.744 392.916L144.761 404.119L166.779 392.916L186.638 404.119L210.382 392.02" stroke="#6765F0" stroke-width="0.3"/>
<path d="M186.205 404.119L210.381 392.02L235.42 404.119L260.892 392.916L281.614 404.119L307.949 392.916L329.966 404.119L351.984 392.916L371.842 404.119L394.723 392.916" stroke="#6765F0" stroke-width="0.3"/>
<path d="M1 440.324L26.0395 429.121L50.2156 440.324L75.6868 429.121L96.4091 440.324L122.744 429.121L144.761 440.324L166.779 429.121L186.638 440.324L210.382 428.224" stroke="#6765F0" stroke-width="0.3"/>
<path d="M186.205 440.324L210.381 428.224L235.42 440.324L260.892 429.121L281.614 440.324L307.949 429.121L329.966 440.324L351.984 429.121L371.842 440.324L394.723 429.121" stroke="#6765F0" stroke-width="0.3"/>
<path d="M1 396.878L26.0395 385.675L50.2156 396.878L75.6868 385.675L96.4091 396.878L122.744 385.675L144.761 396.878L166.779 385.675L186.638 396.878L210.382 384.779" stroke="#6765F0" stroke-width="0.3"/>
<path d="M186.205 396.878L210.381 384.779L235.42 396.878L260.892 385.675L281.614 396.878L307.949 385.675L329.966 396.878L351.984 385.675L371.842 396.878L394.723 385.675" stroke="#6765F0" stroke-width="0.3"/>
<path d="M1 433.083L26.0395 421.88L50.2156 433.083L75.6868 421.88L96.4091 433.083L122.744 421.88L144.761 433.083L166.779 421.88L186.638 433.083L210.382 420.983" stroke="#6765F0" stroke-width="0.3"/>
<path d="M186.205 433.083L210.381 420.983L235.42 433.083L260.892 421.88L281.614 433.083L307.949 421.88L329.966 433.083L351.984 421.88L371.842 433.083L394.723 421.88" stroke="#6765F0" stroke-width="0.3"/>
<path d="M1 389.637L26.0395 378.434L50.2156 389.637L75.6868 378.434L96.4091 389.637L122.744 378.434L144.761 389.637L166.779 378.434L186.638 389.637L210.382 377.538" stroke="#6765F0" stroke-width="0.3"/>
<path d="M186.205 389.637L210.381 377.538L235.42 389.637L260.892 378.434L281.614 389.637L307.949 378.434L329.966 389.637L351.984 378.434L371.842 389.637L394.723 378.434" stroke="#6765F0" stroke-width="0.3"/>
<path d="M1 425.842L26.0395 414.639L50.2156 425.842L75.6868 414.639L96.4091 425.842L122.744 414.639L144.761 425.842L166.779 414.639L186.638 425.842L210.382 413.742" stroke="#6765F0" stroke-width="0.3"/>
<path d="M186.205 425.842L210.381 413.742L235.42 425.842L260.892 414.639L281.614 425.842L307.949 414.639L329.966 425.842L351.984 414.639L371.842 425.842L394.723 414.639" stroke="#6765F0" stroke-width="0.3"/>
<path d="M1 382.396L26.0395 371.193L50.2156 382.396L75.6868 371.193L96.4091 382.396L122.744 371.193L144.761 382.396L166.779 371.193L186.638 382.396L210.382 370.297" stroke="#6765F0" stroke-width="0.3"/>
<path d="M186.205 382.396L210.381 370.297L235.42 382.396L260.892 371.193L281.614 382.396L307.949 371.193L329.966 382.396L351.984 371.193L371.842 382.396L394.723 371.193" stroke="#6765F0" stroke-width="0.3"/>
<path d="M1 375.155L26.0395 363.952L50.2156 375.155L75.6868 363.952L96.4091 375.155L122.744 363.952L144.761 375.155L166.779 363.952L186.638 375.155L210.382 363.056" stroke="#6765F0" stroke-width="0.3"/>
<path d="M186.205 375.155L210.381 363.056L235.42 375.155L260.892 363.952L281.614 375.155L307.949 363.952L329.966 375.155L351.984 363.952L371.842 375.155L394.723 363.952" stroke="#6765F0" stroke-width="0.3"/>
<path d="M1 367.914L26.0395 356.711L50.2156 367.914L75.6868 356.711L96.4091 367.914L122.744 356.711L144.761 367.914L166.779 356.711L186.638 367.914L210.382 355.815" stroke="#6765F0" stroke-width="0.3"/>
<path d="M186.205 367.914L210.381 355.815L235.42 367.914L260.892 356.711L281.614 367.914L307.949 356.711L329.966 367.914L351.984 356.711L371.842 367.914L394.723 356.711" stroke="#6765F0" stroke-width="0.3"/>
<path d="M1 360.673L26.0395 349.47L50.2156 360.673L75.6868 349.47L96.4091 360.673L122.744 349.47L144.761 360.673L166.779 349.47L186.638 360.673L210.382 348.574" stroke="#6765F0" stroke-width="0.3"/>
<path d="M186.205 360.673L210.381 348.574L235.42 360.673L260.892 349.47L281.614 360.673L307.949 349.47L329.966 360.673L351.984 349.47L371.842 360.673L394.723 349.47" stroke="#6765F0" stroke-width="0.3"/>
<path d="M1 353.433L26.0395 342.229L50.2156 353.433L75.6868 342.229L96.4091 353.433L122.744 342.229L144.761 353.433L166.779 342.229L186.638 353.433L210.382 341.333" stroke="#6765F0" stroke-width="0.3"/>
<path d="M186.205 353.433L210.381 341.333L235.42 353.433L260.892 342.229L281.614 353.433L307.949 342.229L329.966 353.433L351.984 342.229L371.842 353.433L394.723 342.229" stroke="#6765F0" stroke-width="0.3"/>
<path d="M1 346.192L26.0395 334.988L50.2156 346.192L75.6868 334.988L96.4091 346.192L122.744 334.988L144.761 346.192L166.779 334.988L186.638 346.192L210.382 334.092" stroke="#6765F0" stroke-width="0.3"/>
<path d="M186.205 346.192L210.381 334.092L235.42 346.192L260.892 334.988L281.614 346.192L307.949 334.988L329.966 346.192L351.984 334.988L371.842 346.192L394.723 334.988" stroke="#6765F0" stroke-width="0.3"/>
<path d="M1 338.951L26.0395 327.747L50.2156 338.951L75.6868 327.747L96.4091 338.951L122.744 327.747L144.761 338.951L166.779 327.747L186.638 338.951L210.382 326.851" stroke="#6765F0" stroke-width="0.3"/>
<path d="M186.205 338.951L210.381 326.851L235.42 338.951L260.892 327.747L281.614 338.951L307.949 327.747L329.966 338.951L351.984 327.747L371.842 338.951L394.723 327.747" stroke="#6765F0" stroke-width="0.3"/>
<path d="M1 331.71L26.0395 320.506L50.2156 331.71L75.6868 320.506L96.4091 331.71L122.744 320.506L144.761 331.71L166.779 320.506L186.638 331.71L210.382 319.61" stroke="#6765F0" stroke-width="0.3"/>
<path d="M186.205 331.71L210.381 319.61L235.42 331.71L260.892 320.506L281.614 331.71L307.949 320.506L329.966 331.71L351.984 320.506L371.842 331.71L394.723 320.506" stroke="#6765F0" stroke-width="0.3"/>
<path d="M1 324.469L26.0395 313.265L50.2156 324.469L75.6868 313.265L96.4091 324.469L122.744 313.265L144.761 324.469L166.779 313.265L186.638 324.469L210.382 312.369" stroke="#6765F0" stroke-width="0.3"/>
<path d="M186.205 324.469L210.381 312.369L235.42 324.469L260.892 313.265L281.614 324.469L307.949 313.265L329.966 324.469L351.984 313.265L371.842 324.469L394.723 313.265" stroke="#6765F0" stroke-width="0.3"/>
<path d="M1 317.228L26.0395 306.024L50.2156 317.228L75.6868 306.024L96.4091 317.228L122.744 306.024L144.761 317.228L166.779 306.024L186.638 317.228L210.382 305.128" stroke="#6765F0" stroke-width="0.3"/>
<path d="M186.205 317.228L210.381 305.128L235.42 317.228L260.892 306.024L281.614 317.228L307.949 306.024L329.966 317.228L351.984 306.024L371.842 317.228L394.723 306.024" stroke="#6765F0" stroke-width="0.3"/>
<path d="M1 309.987L26.0395 298.783L50.2156 309.987L75.6868 298.783L96.4091 309.987L122.744 298.783L144.761 309.987L166.779 298.783L186.638 309.987L210.382 297.887" stroke="#6765F0" stroke-width="0.3"/>
<path d="M186.205 309.987L210.381 297.887L235.42 309.987L260.892 298.783L281.614 309.987L307.949 298.783L329.966 309.987L351.984 298.783L371.842 309.987L394.723 298.783" stroke="#6765F0" stroke-width="0.3"/>
<path d="M1 302.746L26.0395 291.543L50.2156 302.746L75.6868 291.543L96.4091 302.746L122.744 291.543L144.761 302.746L166.779 291.543L186.638 302.746L210.382 290.646" stroke="#6765F0" stroke-width="0.3"/>
<path d="M186.205 302.746L210.381 290.646L235.42 302.746L260.892 291.543L281.614 302.746L307.949 291.543L329.966 302.746L351.984 291.543L371.842 302.746L394.723 291.543" stroke="#6765F0" stroke-width="0.3"/>
<path d="M1 295.505L26.0395 284.302L50.2156 295.505L75.6868 284.302L96.4091 295.505L122.744 284.302L144.761 295.505L166.779 284.302L186.638 295.505L210.382 283.405" stroke="#6765F0" stroke-width="0.3"/>
<path d="M186.205 295.505L210.381 283.405L235.42 295.505L260.892 284.302L281.614 295.505L307.949 284.302L329.966 295.505L351.984 284.302L371.842 295.505L394.723 284.302" stroke="#6765F0" stroke-width="0.3"/>
<path d="M1 288.264L26.0395 277.061L50.2156 288.264L75.6868 277.061L96.4091 288.264L122.744 277.061L144.761 288.264L166.779 277.061L186.638 288.264L210.382 276.164" stroke="#6765F0" stroke-width="0.3"/>
<path d="M186.205 288.264L210.381 276.164L235.42 288.264L260.892 277.061L281.614 288.264L307.949 277.061L329.966 288.264L351.984 277.061L371.842 288.264L394.723 277.061" stroke="#6765F0" stroke-width="0.3"/>
<path d="M1 281.023L26.0395 269.82L50.2156 281.023L75.6868 269.82L96.4091 281.023L122.744 269.82L144.761 281.023L166.779 269.82L186.638 281.023L210.382 268.923" stroke="#6765F0" stroke-width="0.3"/>
<path d="M186.205 281.023L210.381 268.923L235.42 281.023L260.892 269.82L281.614 281.023L307.949 269.82L329.966 281.023L351.984 269.82L371.842 281.023L394.723 269.82" stroke="#6765F0" stroke-width="0.3"/>
<path d="M1 273.782L26.0395 262.579L50.2156 273.782L75.6868 262.579L96.4091 273.782L122.744 262.579L144.761 273.782L166.779 262.579L186.638 273.782L210.382 261.682" stroke="#6765F0" stroke-width="0.3"/>
<path d="M186.205 273.782L210.381 261.682L235.42 273.782L260.892 262.579L281.614 273.782L307.949 262.579L329.966 273.782L351.984 262.579L371.842 273.782L394.723 262.579" stroke="#6765F0" stroke-width="0.3"/>
<path d="M1 266.541L26.0395 255.338L50.2156 266.541L75.6868 255.338L96.4091 266.541L122.744 255.338L144.761 266.541L166.779 255.338L186.638 266.541L210.382 254.441" stroke="#6765F0" stroke-width="0.3"/>
<path d="M186.205 266.541L210.381 254.441L235.42 266.541L260.892 255.338L281.614 266.541L307.949 255.338L329.966 266.541L351.984 255.338L371.842 266.541L394.723 255.338" stroke="#6765F0" stroke-width="0.3"/>
<path d="M1 259.3L26.0395 248.097L50.2156 259.3L75.6868 248.097L96.4091 259.3L122.744 248.097L144.761 259.3L166.779 248.097L186.638 259.3L210.382 247.2" stroke="#6765F0" stroke-width="0.3"/>
<path d="M186.205 259.3L210.381 247.2L235.42 259.3L260.892 248.097L281.614 259.3L307.949 248.097L329.966 259.3L351.984 248.097L371.842 259.3L394.723 248.097" stroke="#6765F0" stroke-width="0.3"/>
<path d="M1 252.059L26.0395 240.856L50.2156 252.059L75.6868 240.856L96.4091 252.059L122.744 240.856L144.761 252.059L166.779 240.856L186.638 252.059L210.382 239.959" stroke="#6765F0" stroke-width="0.3"/>
<path d="M186.205 252.059L210.381 239.959L235.42 252.059L260.892 240.856L281.614 252.059L307.949 240.856L329.966 252.059L351.984 240.856L371.842 252.059L394.723 240.856" stroke="#6765F0" stroke-width="0.3"/>
<path d="M1 244.818L26.0395 233.615L50.2156 244.818L75.6868 233.615L96.4091 244.818L122.744 233.615L144.761 244.818L166.779 233.615L186.638 244.818L210.382 232.719" stroke="#6765F0" stroke-width="0.3"/>
<path d="M186.205 244.818L210.381 232.719L235.42 244.818L260.892 233.615L281.614 244.818L307.949 233.615L329.966 244.818L351.984 233.615L371.842 244.818L394.723 233.615" stroke="#6765F0" stroke-width="0.3"/>
<path d="M1.00049 237.577L26.04 226.374L50.216 237.577L75.6872 226.374L96.4096 237.577L122.744 226.374L144.762 237.577L166.779 226.374L186.638 237.577L210.382 225.478" stroke="#6765F0" stroke-width="0.3"/>
<path d="M186.205 237.577L210.381 225.478L235.421 237.577L260.892 226.374L281.614 237.577L307.949 226.374L329.967 237.577L351.984 226.374L371.843 237.577L394.724 226.374" stroke="#6765F0" stroke-width="0.3"/>
</g>
</svg>
